<svg width="70" height="70" viewBox="0 0 70 70" fill="none" xmlns="http://www.w3.org/2000/svg">
<g clip-path="url(#clip0_6066_558)">
<g clip-path="url(#clip1_6066_558)">
<path d="M58.5293 35.9781L41.8806 34.6082C40.2232 34.4719 39.5588 32.4004 40.8264 31.3237L53.5672 20.5201L52.0737 18.7577L39.3319 29.5612C38.0644 30.6369 36.1274 29.6427 36.2638 27.9843L37.6337 11.3356L35.3315 11.1462L33.9616 27.7949C33.8252 29.4533 31.7537 30.1177 30.6781 28.8492L19.8755 16.1084L18.114 17.603L28.9176 30.3439C29.9923 31.6113 28.9981 33.5483 27.3407 33.4119L10.692 32.042L10.5025 34.3442L27.1503 35.714C28.8077 35.8504 29.473 37.9219 28.2045 38.9985L15.4658 49.8003L16.9593 51.5627L29.7011 40.7592C30.9686 39.6835 32.9055 40.6787 32.7692 42.3361L31.3993 58.9848L33.7015 59.1743L35.0714 42.5255C35.2078 40.8681 37.2793 40.2028 38.3549 41.4712L49.1585 54.2121L50.9199 52.7185L40.1155 39.9756C39.0408 38.7082 40.035 36.7712 41.6924 36.9076L58.3411 38.2774L58.5305 35.9762L58.5293 35.9781Z" fill="#090A0B"/>
<path d="M34.2703 38.1496C35.9216 38.2855 37.3704 37.057 37.5062 35.4057C37.6421 33.7545 36.4136 32.3057 34.7624 32.1698C33.1111 32.034 31.6623 33.2625 31.5264 34.9137C31.3906 36.565 32.6191 38.0138 34.2703 38.1496Z" fill="#BEFF6B"/>
</g>
</g>
<defs>
<clipPath id="clip0_6066_558">
<rect width="64.0057" height="64.0057" fill="white" transform="translate(5.24902 0.643555) rotate(4.70377)"/>
</clipPath>
<clipPath id="clip1_6066_558">
<rect width="64.0057" height="64.0057" fill="white" transform="translate(5.24902 0.643555) rotate(4.70377)"/>
</clipPath>
</defs>
</svg>
